PathFileType	4	(X/Y/Z)	RBDS012static.trc
DataRate	CameraRate	NumFrames	NumMarkers	Units	OrigDataRate	OrigDataStartFrame	OrigNumFrames
150.000000	150.000000	4	48	mm	150.000000	18	150
Frame#	Time	L.Ankle			L.Ankle.Medial			L.ASIS			L.GTR			L.Heel.Bottom			L.Heel.Lateral			L.Heel.Top			L.HF			L.Iliac.Crest			L.Knee			L.Knee.Medial			L.MT1			L.MT2			L.MT5			L.PSIS			L.Shank.Bottom.Lateral			L.Shank.Bottom.Medial			L.Shank.Top.Lateral			L.Shank.Top.Medial			L.Thigh.Bottom.Lateral			L.Thigh.Bottom.Medial			L.Thigh.Top.Lateral			L.Thigh.Top.Medial			L.TT			R.Ankle			R.Ankle.Medial			R.ASIS			R.GTR			R.Heel.Bottom			R.Heel.Lateral			R.Heel.Top			R.HF			R.Iliac.Crest			R.Knee			R.Knee.Medial			R.MT1			R.MT2			R.MT5			R.PSIS			R.Shank.Bottom.Lateral			R.Shank.Bottom.Medial			R.Shank.Top.Lateral			R.Shank.Top.Medial			R.Thigh.Bottom.Lateral			R.Thigh.Bottom.Medial			R.Thigh.Top.Lateral			R.Thigh.Top.Medial			R.TT			
		X1	Y1	Z1	X2	Y2	Z2	X3	Y3	Z3	X4	Y4	Z4	X5	Y5	Z5	X6	Y6	Z6	X7	Y7	Z7	X8	Y8	Z8	X9	Y9	Z9	X10	Y10	Z10	X11	Y11	Z11	X12	Y12	Z12	X13	Y13	Z13	X14	Y14	Z14	X15	Y15	Z15	X16	Y16	Z16	X17	Y17	Z17	X18	Y18	Z18	X19	Y19	Z19	X20	Y20	Z20	X21	Y21	Z21	X22	Y22	Z22	X23	Y23	Z23	X24	Y24	Z24	X25	Y25	Z25	X26	Y26	Z26	X27	Y27	Z27	X28	Y28	Z28	X29	Y29	Z29	X30	Y30	Z30	X31	Y31	Z31	X32	Y32	Z32	X33	Y33	Z33	X34	Y34	Z34	X35	Y35	Z35	X36	Y36	Z36	X37	Y37	Z37	X38	Y38	Z38	X39	Y39	Z39	X40	Y40	Z40	X41	Y41	Z41	X42	Y42	Z42	X43	Y43	Z43	X44	Y44	Z44	X45	Y45	Z45	X46	Y46	Z46	X47	Y47	Z47	X48	Y48	Z48	

19	0.12	715.4542236328125	107.1991653442383	1041.951416015625	743.0870361328125	120.1415023803711	1126.011840820313	864.6448974609375	1038.916625976563	1083.410522460938	781.8098754882813	965.1475219726563	1043.092407226563	642.496337890625	43.17086410522461	1086.009765625	673.7879638671875	55.59841537475586	1040.081665039063	653.0586547851563	92.97650909423828	1084.984130859375	756.0026245117188	482.6789245605469	1046.283447265625	806.792724609375	1105.4521484375	1051.1708984375	757.1055908203125	556.8919067382813	1047.876098632813	765.894775390625	531.9279174804688	1178.012817382813	865.3394775390625	56.70052719116211	1128.928466796875	878.6494140625	66.43122100830078	1081.939208984375	841.8037719726563	51.38395309448242	1009.943786621094	693.0551147460938	1079.899047851563	1174.665649414063	724.8238525390625	187.2424468994141	1037.408325195313	680.9175415039063	188.0754852294922	1070.957641601563	718.1513671875	267.2398071289063	1028.442504882813	677.0994873046875	268.7766418457031	1063.255493164063	789.9467163085938	656.1282958984375	1030.197631835938	723.6549682617188	655.0293579101563	1059.933227539063	779.9946899414063	766.0728149414063	1022.464111328125	721.0464477539063	765.5735473632813	1057.113647460938	811.027099609375	464.5370483398438	1091.982055664063	722.1593627929688	110.2172698974609	1406.057373046875	749.78271484375	123.5430450439453	1324.4892578125	864.7457885742188	1051.071533203125	1365.379028320313	793.2177734375	961.773681640625	1408.3232421875	642.6838989257813	44.9573860168457	1373.103637695313	665.1656494140625	62.62283325195313	1408.752197265625	655.2109375	94.66082000732422	1370.545654296875	775.6685791015625	480.5019226074219	1400.1044921875	809.4522094726563	1109.01416015625	1391.203857421875	773.92919921875	556.283935546875	1397.899169921875	783.9461059570313	537.9476318359375	1268.371337890625	864.924072265625	58.58763885498047	1323.033447265625	879.804443359375	67.05171203613281	1373.519287109375	841.2765502929688	52.93471145629883	1441.9775390625	694.2879638671875	1078.814086914063	1278.516723632813	723.7528076171875	193.2713775634766	1409.067626953125	684.5410766601563	201.0301055908203	1377.239013671875	729.2962646484375	277.2566833496094	1420.273681640625	687.1809692382813	281.2767944335938	1387.927612304688	774.739990234375	645.1994018554688	1411.33544921875	717.0341186523438	644.8568725585938	1365.033813476563	766.239501953125	754.684326171875	1415.818115234375	713.693359375	755.2426147460938	1370.58544921875	828.96533203125	466.1016235351563	1353.970581054688	
20	0.1266666666666667	715.4600830078125	107.1965255737305	1041.953735351563	743.0722045898438	120.1325836181641	1126.01123046875	864.6218872070313	1038.916015625	1083.392456054688	781.78125	965.1630249023438	1043.072998046875	642.4949340820313	43.16543197631836	1086.009399414063	673.7868041992188	55.59302520751953	1040.078369140625	653.0502319335938	92.97413635253906	1084.994750976563	755.9804077148438	482.671630859375	1046.27490234375	806.7601928710938	1105.444946289063	1051.159912109375	757.1064453125	556.88720703125	1047.877319335938	765.8805541992188	531.9270629882813	1178.009887695313	865.3414306640625	56.69627380371094	1128.938232421875	878.6339111328125	66.42675018310547	1081.935913085938	841.8009643554688	51.38290405273438	1009.958557128906	693.0321044921875	1079.896850585938	1174.652099609375	724.82958984375	187.239013671875	1037.400268554688	680.92041015625	188.0845031738281	1070.9560546875	718.1480102539063	267.2337951660156	1028.438720703125	677.0895385742188	268.7727966308594	1063.247314453125	789.9403686523438	656.123779296875	1030.199340820313	723.6575317382813	655.0302124023438	1059.914794921875	779.9893188476563	766.0687866210938	1022.455871582031	721.04296875	765.56787109375	1057.10498046875	811.017578125	464.5328369140625	1091.979248046875	722.1484375	110.2273178100586	1406.073974609375	749.7798461914063	123.5451431274414	1324.478881835938	864.7239990234375	1051.06494140625	1365.353881835938	793.2099609375	961.7574462890625	1408.302001953125	642.6777954101563	44.95702362060547	1373.099243164063	665.1692504882813	62.62139511108398	1408.748291015625	655.2137451171875	94.66266632080078	1370.54443359375	775.6594848632813	480.50634765625	1400.098510742188	809.4373168945313	1109.005737304688	1391.1953125	773.912109375	556.287353515625	1397.881958007813	783.9523315429688	537.9462890625	1268.375610351563	864.926025390625	58.59132385253906	1323.038696289063	879.797607421875	67.05461120605469	1373.517944335938	841.2833862304688	52.9155158996582	1441.970703125	694.2632446289063	1078.81103515625	1278.495239257813	723.7450561523438	193.2657165527344	1409.063354492188	684.53466796875	201.029296875	1377.231079101563	729.2830810546875	277.2537841796875	1420.2802734375	687.1695556640625	281.2728881835938	1387.918701171875	774.7202758789063	645.2008056640625	1411.337036132813	717.0220947265625	644.8540649414063	1365.027587890625	766.212890625	754.68310546875	1415.799682617188	713.6838989257813	755.2386474609375	1370.564331054688	828.9514770507813	466.0939331054688	1353.970703125	
21	0.1333333333333333	715.4574584960938	107.1922149658203	1041.952270507813	743.083251953125	120.1326675415039	1126.006469726563	864.5868530273438	1038.922607421875	1083.372924804688	781.7628784179688	965.1593017578125	1043.064086914063	642.4991455078125	43.16031646728516	1086.014282226563	673.7804565429688	55.58490371704102	1040.081909179688	653.05517578125	92.96626281738281	1084.990478515625	755.9842529296875	482.6697082519531	1046.267456054688	806.7328491210938	1105.4521484375	1051.152465820313	757.0882568359375	556.8880004882813	1047.866821289063	765.889404296875	531.892333984375	1177.96240234375	865.341796875	56.69821548461914	1128.92431640625	878.647216796875	66.43457794189453	1081.931396484375	841.80126953125	51.38144302368164	1009.947875976563	693.000244140625	1079.888793945313	1174.635864257813	724.8181762695313	187.2464447021484	1037.396484375	680.9190673828125	188.0633850097656	1070.963745117188	718.1470336914063	267.2289123535156	1028.439575195313	677.0865478515625	268.7674560546875	1063.244873046875	789.9412841796875	656.1209106445313	1030.195190429688	723.642333984375	655.019287109375	1059.909912109375	779.9794311523438	766.0713500976563	1022.439819335938	721.0278930664063	765.5717163085938	1057.10107421875	811.0167236328125	464.5247192382813	1091.973510742188	722.1603393554688	110.2106857299805	1406.052490234375	749.7891845703125	123.5466156005859	1324.484985351563	864.7061767578125	1051.062622070313	1365.34130859375	793.1857299804688	961.768310546875	1408.307495117188	642.6801147460938	44.95896911621094	1373.10498046875	665.1705932617188	62.62173080444336	1408.750366210938	655.2085571289063	94.65648651123047	1370.544799804688	775.64208984375	480.5008544921875	1400.087524414063	809.42529296875	1109.001708984375	1391.170288085938	773.8959350585938	556.2803344726563	1397.874145507813	783.9361572265625	537.951171875	1268.361938476563	864.9146728515625	58.58955764770508	1323.037353515625	879.8048706054688	67.05107879638672	1373.510864257813	841.2826538085938	52.91407775878906	1441.973266601563	694.2382202148438	1078.807861328125	1278.486083984375	723.7355346679688	193.2641754150391	1409.057739257813	684.5291137695313	201.0170135498047	1377.223388671875	729.2759399414063	277.2581787109375	1420.267456054688	687.1654052734375	281.2681274414063	1387.908569335938	774.7005615234375	645.2051391601563	1411.312744140625	717.0009155273438	644.8671875	1365.018798828125	766.2011108398438	754.6854858398438	1415.795532226563	713.661376953125	755.23583984375	1370.562744140625	828.9337158203125	466.0947265625	1353.965698242188	
22	0.14	715.4585571289063	107.1941909790039	1041.952880859375	743.0709838867188	120.1189270019531	1126.015380859375	864.5680541992188	1038.926025390625	1083.368286132813	781.7335815429688	965.1571044921875	1043.05615234375	642.4884643554688	43.16226577758789	1086.013305664063	673.777587890625	55.58852005004883	1040.086669921875	653.0480346679688	92.96257781982422	1084.987670898438	755.982421875	482.6579895019531	1046.264404296875	806.7046508789063	1105.44384765625	1051.131103515625	757.0899658203125	556.8766479492188	1047.859985351563	765.8824462890625	531.904052734375	1177.960205078125	865.34228515625	56.70748901367188	1128.932250976563	878.6416015625	66.43492126464844	1081.9443359375	841.7979736328125	51.37024307250977	1009.948547363281	692.9647216796875	1079.8955078125	1174.628051757813	724.822509765625	187.2275085449219	1037.404296875	680.9163208007813	188.0681762695313	1070.953979492188	718.1397705078125	267.2232971191406	1028.431884765625	677.0787963867188	268.7571105957031	1063.23779296875	789.92529296875	656.1214599609375	1030.173828125	723.6511840820313	655.0036010742188	1059.902709960938	779.9752197265625	766.0678100585938	1022.445983886719	721.0206298828125	765.5653076171875	1057.092529296875	811.0128784179688	464.5321044921875	1091.965087890625	722.1630249023438	110.2071075439453	1406.04638671875	749.7723999023438	123.5385208129883	1324.485107421875	864.677978515625	1051.056274414063	1365.322875976563	793.1729125976563	961.7625732421875	1408.278198242188	642.68017578125	44.95075988769531	1373.1025390625	665.1672973632813	62.61940002441406	1408.73828125	655.20751953125	94.64889526367188	1370.536376953125	775.6307983398438	480.5088500976563	1400.090454101563	809.4161376953125	1109.011352539063	1391.166015625	773.8787841796875	556.28759765625	1397.86962890625	783.9006958007813	537.9484252929688	1268.355346679688	864.9212646484375	58.59053421020508	1323.04345703125	879.8068237304688	67.05741882324219	1373.512573242188	841.2794799804688	52.91437149047852	1441.979125976563	694.2089233398438	1078.805786132813	1278.465698242188	723.738037109375	193.2583770751953	1409.057495117188	684.5267944335938	201.0182800292969	1377.21435546875	729.2645263671875	277.2606506347656	1420.268310546875	687.1539306640625	281.2661437988281	1387.910400390625	774.6871948242188	645.2049560546875	1411.322265625	716.987548828125	644.8604736328125	1365.011596679688	766.1793212890625	754.6849975585938	1415.7890625	713.6421508789063	755.2373657226563	1370.543579101563	828.9224243164063	466.1029357910156	1353.957763671875	
